<svg width="73" height="72" viewBox="0 0 73 72" fill="none" xmlns="http://www.w3.org/2000/svg">
<path d="M12.5 44.6968C10.2712 42.4196 8.58974 39.665 7.58314 36.6416C6.57654 33.6183 6.27116 30.4055 6.69012 27.2467C7.10909 24.0879 8.24141 21.0658 10.0013 18.4094C11.7612 15.753 14.1026 13.532 16.848 11.9145C19.5935 10.297 22.671 9.32548 25.8475 9.07355C29.0241 8.82162 32.2163 9.29588 35.1823 10.4604C38.1484 11.6249 40.8106 13.4491 42.9672 15.7949C45.1239 18.1407 46.7184 20.9465 47.63 23.9998H53C55.8966 23.9995 58.7164 24.9308 61.043 26.6561C63.3696 28.3815 65.0796 30.8094 65.9204 33.5812C66.7611 36.3531 66.6881 39.3218 65.712 42.0489C64.736 44.7761 62.9087 47.117 60.5 48.7258M36.4998 35.9998V62.9998M36.4998 62.9998L24.4998 50.9998M36.4998 62.9998L48.4998 50.9998" stroke="#1C5350" stroke-width="3" stroke-linecap="round" stroke-linejoin="round"/>
</svg>
