<svg width="73" height="73" viewBox="0 0 73 73" fill="none" xmlns="http://www.w3.org/2000/svg">
<path d="M66.5 42.5C66.5 48.8652 63.9714 54.9697 59.4706 59.4706C54.9697 63.9714 48.8652 66.5 42.5 66.5" fill="#F8F1E6"/>
<path d="M54.5 33.5V30.5C54.5 28.9087 53.8679 27.3826 52.7426 26.2574C51.6174 25.1321 50.0913 24.5 48.5 24.5C46.9087 24.5 45.3826 25.1321 44.2574 26.2574C43.1321 27.3826 42.5 28.9087 42.5 30.5" fill="#F8F1E6"/>
<path d="M42.5 30.5V27.5C42.5 25.9087 41.8679 24.3826 40.7426 23.2574C39.6174 22.1321 38.0913 21.5 36.5 21.5C34.9087 21.5 33.3826 22.1321 32.2574 23.2574C31.1321 24.3826 30.5 25.9087 30.5 27.5V30.5" fill="#F8F1E6"/>
<path d="M30.5 29V12.5C30.5 10.9087 29.8679 9.38258 28.7426 8.25736C27.6174 7.13214 26.0913 6.5 24.5 6.5C22.9087 6.5 21.3826 7.13214 20.2574 8.25736C19.1321 9.38258 18.5 10.9087 18.5 12.5V42.5" fill="#F8F1E6"/>
<path d="M54.5 33.5C54.5 31.9087 55.1325 30.3826 56.2577 29.2574C57.3829 28.1321 58.909 27.5 60.5003 27.5C62.0916 27.5 63.6177 28.1321 64.743 29.2574C65.8682 30.3826 66.5003 31.9087 66.5003 33.5L66.5 42.5C66.5 48.8652 63.9714 54.9697 59.4706 59.4706C54.9697 63.9714 48.8652 66.5 42.5 66.5H36.5003C28.1003 66.5 23.0003 63.92 18.5303 59.48L7.73031 48.68C6.69812 47.5368 6.14507 46.0405 6.18568 44.5008C6.22629 42.9611 6.85745 41.496 7.94847 40.4089C9.03949 39.3217 10.5068 38.6958 12.0466 38.6606C13.5864 38.6254 15.0808 39.1838 16.2203 40.22L21.5003 45.5" fill="#F8F1E6"/>
<path d="M30.5 30.5V27.5C30.5 25.9087 31.1321 24.3826 32.2574 23.2574C33.3826 22.1321 34.9087 21.5 36.5 21.5C38.0913 21.5 39.6174 22.1321 40.7426 23.2574C41.8679 24.3826 42.5 25.9087 42.5 27.5V30.5C42.5 28.9087 43.1321 27.3826 44.2574 26.2574C45.3826 25.1321 46.9087 24.5 48.5 24.5C50.0913 24.5 51.6174 25.1321 52.7426 26.2574C53.8679 27.3826 54.5 28.9087 54.5 30.5V33.5C54.5 31.9087 55.1325 30.3826 56.2577 29.2574C57.3829 28.1321 58.909 27.5 60.5003 27.5C62.0916 27.5 63.6177 28.1321 64.7429 29.2574C65.8682 30.3826 66.5003 31.9087 66.5003 33.5L66.5 42.5C66.5 48.8652 63.9714 54.9697 59.4706 59.4706C54.9697 63.9714 48.8652 66.5 42.5 66.5H36.5003C28.1003 66.5 23.0003 63.92 18.5303 59.48L7.73031 48.68C6.69812 47.5368 6.14507 46.0405 6.18568 44.5008C6.22629 42.9611 6.85745 41.496 7.94847 40.4089C9.03949 39.3217 10.5068 38.6958 12.0466 38.6606C13.5864 38.6254 15.0808 39.1838 16.2203 40.22L21.5003 45.5M30.5 29V12.5C30.5 10.9087 29.8679 9.38258 28.7426 8.25736C27.6174 7.13214 26.0913 6.5 24.5 6.5C22.9087 6.5 21.3826 7.13214 20.2574 8.25736C19.1321 9.38258 18.5 10.9087 18.5 12.5V42.5" stroke="#185250" stroke-width="3" stroke-linecap="round" stroke-linejoin="round"/>
</svg>
