<svg width="73" height="73" viewBox="0 0 73 73" fill="none" xmlns="http://www.w3.org/2000/svg">
<path d="M24.2 60.5001C29.9257 63.4373 36.5123 64.2329 42.7727 62.7435C49.0331 61.2541 54.5557 57.5776 58.3453 52.3767C62.1349 47.1757 63.9423 40.7923 63.4417 34.3766C62.9412 27.961 60.1658 21.935 55.6154 17.3847C51.0651 12.8344 45.0392 10.0589 38.6235 9.55839C32.2079 9.05788 25.8244 10.8653 20.6235 14.6549C15.4225 18.4445 11.7461 23.9671 10.2567 30.2275C8.76726 36.4879 9.56283 43.0744 12.5 48.8001L6.5 66.5001L24.2 60.5001Z" stroke="#1C5350" stroke-width="3" stroke-linecap="round" stroke-linejoin="round"/>
<path d="M51.9991 43.7121V48.0777C52.0008 48.483 51.9147 48.8842 51.7464 49.2555C51.5781 49.6269 51.3313 49.9602 51.0218 50.2342C50.7122 50.5082 50.3467 50.7168 49.9488 50.8466C49.5508 50.9764 49.1292 51.0247 48.7108 50.9882C44.0692 50.5016 39.6106 48.9715 35.6934 46.5207C32.0488 44.2864 28.9589 41.3054 26.643 37.7893C24.0938 33.9929 22.5074 29.6706 22.0122 25.1725C21.9745 24.7701 22.0241 24.3645 22.1578 23.9816C22.2915 23.5987 22.5063 23.2468 22.7887 22.9484C23.0711 22.65 23.4148 22.4115 23.7979 22.2483C24.181 22.085 24.5951 22.0005 25.0139 22.0001H29.5391C30.2712 21.9932 30.9808 22.2433 31.5359 22.7038C32.0909 23.1643 32.4534 23.8038 32.5559 24.5031C32.7469 25.9002 33.1011 27.272 33.6118 28.5923C33.8147 29.1132 33.8586 29.6792 33.7383 30.2234C33.618 30.7676 33.3386 31.2672 32.933 31.6628L31.0173 33.511C33.1646 37.1542 36.2914 40.1707 40.0677 42.2423L41.9833 40.3942C42.3935 40.0029 42.9112 39.7333 43.4753 39.6172C44.0394 39.5011 44.6262 39.5435 45.1661 39.7393C46.5346 40.232 47.9565 40.5737 49.4046 40.758C50.1374 40.8577 50.8065 41.2138 51.2849 41.7584C51.7633 42.3031 52.0174 42.9984 51.9991 43.7121Z" stroke="#1C5350" stroke-width="3" stroke-linecap="round" stroke-linejoin="round"/>
</svg>
